<?xml version="1.0" encoding="UTF-8" standalone="no"?>
<!-- Generator: Adobe Illustrator 16.0.3, SVG Export Plug-In . SVG Version: 6.00 Build 0)  -->

<svg
   xmlns:dc="http://purl.org/dc/elements/1.1/"
   xmlns:cc="http://creativecommons.org/ns#"
   xmlns:rdf="http://www.w3.org/1999/02/22-rdf-syntax-ns#"
   xmlns:svg="http://www.w3.org/2000/svg"
   xmlns="http://www.w3.org/2000/svg"
   xmlns:sodipodi="http://sodipodi.sourceforge.net/DTD/sodipodi-0.dtd"
   xmlns:inkscape="http://www.inkscape.org/namespaces/inkscape"
   version="1.1"
   id="Ebene_1"
   x="0px"
   y="0px"
   width="69"
   height="60.375999"
   viewBox="0 0 69 60.375999"
   enable-background="new 0 0 69 73"
   xml:space="preserve"
   inkscape:version="0.91 r13725"
   sodipodi:docname="UKE2.svg"><metadata
     id="metadata29"><rdf:RDF><cc:Work
         rdf:about=""><dc:format>image/svg+xml</dc:format><dc:type
           rdf:resource="http://purl.org/dc/dcmitype/StillImage" /><dc:title></dc:title></cc:Work></rdf:RDF></metadata><defs
     id="defs27" /><sodipodi:namedview
     pagecolor="#ffffff"
     bordercolor="#666666"
     borderopacity="1"
     objecttolerance="10"
     gridtolerance="10"
     guidetolerance="10"
     inkscape:pageopacity="0"
     inkscape:pageshadow="2"
     inkscape:window-width="1040"
     inkscape:window-height="628"
     id="namedview25"
     showgrid="false"
     fit-margin-top="0"
     fit-margin-left="0"
     fit-margin-right="0"
     fit-margin-bottom="0"
     inkscape:zoom="3.2328767"
     inkscape:cx="34.5"
     inkscape:cy="23.558"
     inkscape:window-x="42"
     inkscape:window-y="0"
     inkscape:window-maximized="0"
     inkscape:current-layer="Ebene_1" /><polygon
     style="fill:#004992"
     id="polygon5"
     points="0,60.058 60.375,60.058 60.375,49.707 69,49.707 69,44.877 60.375,44.877 60.375,40.909 68.138,40.909 68.138,36.08 60.375,36.08 60.375,32.111 69,32.111 69,32.111 69,27.282 60.375,27.282 60.375,-0.318 0,-0.318 "
     transform="translate(0,0.318)" /><path
     style="fill:#ffffff"
     inkscape:connector-curvature="0"
     id="path7"
     d="m 25.765,50.345 c -7.026,0 -8.517,-3.844 -8.517,-7.953 l 0,-14.748 3.612,0 0,14.482 c 0,2.983 0.994,5.236 5.137,5.236 3.646,0 5.303,-1.524 5.303,-5.7 l 0,-14.018 3.546,0 0,13.754 c -10e-4,5.965 -3.216,8.947 -9.081,8.947 l 0,0 z" /><polygon
     style="fill:#ffffff"
     id="polygon9"
     points="43.131,27.326 43.131,37.699 51.283,27.326 55.724,27.326 46.843,38.13 56.056,49.696 51.25,49.696 51.25,49.696 43.131,38.76 43.131,49.696 39.519,49.696 39.519,27.326 "
     transform="translate(0,0.318)" /></svg>